<?xml version="1.0" encoding="utf-8"?>
<!-- Generator: Adobe Illustrator 19.1.0, SVG Export Plug-In . SVG Version: 6.00 Build 0)  -->
<svg version="1.1" id="Layer_1" xmlns="http://www.w3.org/2000/svg" xmlns:xlink="http://www.w3.org/1999/xlink" x="0px" y="0px"
	 viewBox="0 0 452.6 452.6" style="enable-background:new 0 0 452.6 452.6;" xml:space="preserve">
<style type="text/css">
	.st0{fill:rgba(0,0,0,0);}
	.st1{fill:#ffffff;}
</style>
<polygon class="st0" points="186.3,295.6 146.3,226.3 186.3,157 266.3,157 306.3,226.3 266.3,295.6 "/>
<path class="st1" d="M11.2,160c-6.5,21-9.9,43.2-9.9,66.3c0,56.7,21,108.5,55.6,148.1L181.1,160H11.2z"/>
<path class="st1" d="M61.1,379.1c41.1,44.4,99.9,72.3,165.2,72.3c14.7,0,29-1.4,42.9-4.1l-123-215L61.1,379.1z"/>
<path class="st1" d="M390.2,72.2c-41-43.6-99.3-70.9-163.9-70.9c-14.9,0-29.5,1.5-43.7,4.3L306,219.8L390.2,72.2z"/>
<path class="st1" d="M176.5,6.9C99.9,24.2,38.1,80.6,13.2,154h248L176.5,6.9z"/>
<path class="st1" d="M441.4,292.6c6.5-21,9.9-43.2,9.9-66.3c0-57.4-21.5-109.7-56.8-149.5l-123,215.8H441.4z"/>
<path class="st1" d="M275.4,445.9c77-17.1,139.1-73.7,164.1-147.3H191.1L275.4,445.9z"/>
<path class="st0" d="M179.3-0.2l-5.2,3l2.3,4.1c2-0.5,4.1-0.9,6.2-1.3L179.3-0.2z"/>
<path class="st0" d="M266.3,154v6h-1.6l37.9,65.9l3.4-6L182.6,5.6c-2.1,0.4-4.1,0.8-6.2,1.3L261.2,154H266.3z"/>
<path class="st0" d="M-12.9,154v6h24.2c0.6-2,1.3-4,1.9-6H-12.9z"/>
<path class="st0" d="M183.7,155.5l5.2,3L188,160h76.6l-3.5-6h-248c-0.7,2-1.3,4-1.9,6h169.9L183.7,155.5z"/>
<polygon class="st0" points="266.3,154 261.2,154 264.7,160 266.3,160 "/>
<path class="st0" d="M50.9,384.8l5.2,3l5.1-8.8c-1.4-1.5-2.8-3.1-4.2-4.7L50.9,384.8z"/>
<path class="st0" d="M143.7,227.8l5.2-3l0.8,1.4L188,160h-6.9L56.9,374.4c1.4,1.6,2.8,3.1,4.2,4.7l85.1-146.9L143.7,227.8z"/>
<polygon class="st0" points="183.7,155.5 181.1,160 188,160 188.9,158.5 "/>
<path class="st0" d="M272.4,452.8l5.2-3l-2.2-3.9c-2,0.5-4.1,0.9-6.2,1.3L272.4,452.8z"/>
<path class="st0" d="M186.3,298.6v-6h1.4l-38-66.4l-3.5,6l123,215c2.1-0.4,4.1-0.8,6.2-1.3l-84.3-147.3H186.3z"/>
<polygon class="st0" points="143.7,227.8 146.2,232.2 149.7,226.2 148.9,224.8 "/>
<path class="st0" d="M439.4,298.6h11.9v-6h-9.9C440.8,294.6,440.1,296.6,439.4,298.6z"/>
<path class="st0" d="M271.5,292.6l-2.6,4.5l-5.2-3l0.9-1.5h-76.9l3.4,6h248.3c0.7-2,1.3-4,1.9-6H271.5z"/>
<polygon class="st0" points="186.3,298.6 191.1,298.6 187.7,292.6 186.3,292.6 "/>
<path class="st0" d="M400,67.1l-5.2-3l-4.6,8.1c1.4,1.5,2.9,3.1,4.3,4.7L400,67.1z"/>
<path class="st0" d="M308.9,224.8l-5.2,3l-1.1-1.9l-38,66.7h6.9l123-215.8c-1.4-1.6-2.8-3.1-4.3-4.7L306,219.8L308.9,224.8z"/>
<polygon class="st0" points="308.9,224.8 306,219.8 302.6,225.9 303.7,227.8 "/>
<polygon class="st0" points="263.7,294.1 268.9,297.1 271.5,292.6 264.6,292.6 "/>
</svg>
